<?xml version="1.0" encoding="utf-8"?>
<!-- Svg Vector Icons : http://www.sfont.cn -->
<!DOCTYPE svg PUBLIC "-//W3C//DTD SVG 1.1//EN" "http://www.w3.org/Graphics/SVG/1.1/DTD/svg11.dtd">
<svg height="512" width="512" version="1.1" xmlns="http://www.w3.org/2000/svg" xmlns:xlink="http://www.w3.org/1999/xlink" x="0px" y="0px" viewBox="0 0 1000 1000" enable-background="new 0 0 1000 1000" xml:space="preserve">
<metadata> Svg Vector Icons : http://www.sfont.cn </metadata>
<g><g transform="translate(0.000000,512.000000) scale(0.100000,-0.100000)"><path d="M3141.6,5006.2C2117.3,4879.8,1206,4313.1,648.9,3455.4C-9.8,2442.6-80.6,1140.7,463.1,57.1c515-1022.4,1510.6-1725,2649.7-1866.7c118.7-15.3,310.2-21.1,532.2-13.4c388.7,11.5,675.8,61.3,982.2,168.5c193.4,67,545.6,229.7,687.3,319.7l95.7,59.3l1751.8-1749.9L8914-4777.2l493.9,494l492.1,492L8150.1-2041.3L6398.3-289.5l47.9,76.6C6532.3-75,6718,319.4,6777.4,495.5c107.2,306.3,157,593.5,168.5,982.2c7.7,222.1,1.9,413.5-13.4,532.2c-141.7,1139.2-844.3,2134.7-1866.7,2649.7c-317.8,158.9-624.2,258.5-986,321.7C3878.7,5013.9,3335,5029.2,3141.6,5006.2z M3802.1,4027.9c570.5-68.9,1045.3-300.6,1447.4-704.6c459.5-461.4,691.2-980.3,719.9-1619.7c30.6-698.8-220.2-1344-712.2-1838c-494-492.1-1139.2-742.8-1838-712.2c-639.5,28.7-1158.3,260.4-1619.7,719.9c-582,578.2-829,1378.5-675.8,2184.5c88.1,471,325.5,913.2,675.8,1265.5c417.4,415.4,897.9,641.4,1524,714.1C3449.9,4050.8,3639.4,4047,3802.1,4027.9z"/><path d="M3042.1,2580.4l-5.7-494l-494-5.7l-492-3.8l3.8-484.4l5.7-482.5l494-5.7l492-3.8V612.3V124.1h488.2h488.2v488.2v488.2h488.2h488.2v488.2v488.2h-488.2h-488.2l-3.8,494l-5.7,492l-482.5,5.7l-484.4,3.8L3042.1,2580.4z"/></g></g>
</svg>